# xmcd
#
# Track frame offsets: 
#        150
#        17489
#        33543
#        50500
#        70793
#        88430
#        111330
#        128192
#        144763
#        168281
#        192223
#        206361
#        230554
#        245427
#
# Disc length: 3797 seconds
#
# Revision: 0
# Processed by: cddbd v1.5.2PL0 Copyright (c) Steve Scherf et al.
# Submitted via: ExactAudioCopy v0.95b4
#
DISCID=bf0ed30e
DTITLE=Flavio Guimaraes and Prado Blues Band - Flavio Guimaraes and Prado 
DTITLE=Blues Band
DYEAR=2006
DGENRE=Blues
TTITLE0=I May Be Wrong
TTITLE1=Missing Mr. Clarke
TTITLE2=T-Bone Shuffle
TTITLE3=Riding with Ray
TTITLE4=Please Send Her Home to Me
TTITLE5=Tin Pan Alley
TTITLE6=George's Boogie
TTITLE7=Lazy Thing
TTITLE8=Below's Shuffle
TTITLE9=Swing me Baby
TTITLE10=Put the Kettle On
TTITLE11=Going Home Tomorrow
TTITLE12=Boogie do Cauê
TTITLE13=Louise
EXTD=
EXTT0=
EXTT1=
EXTT2=
EXTT3=
EXTT4=
EXTT5=
EXTT6=
EXTT7=
EXTT8=
EXTT9=
EXTT10=
EXTT11=
EXTT12=
EXTT13=
PLAYORDER=
